# xmcd CD database file
#
# Track frame offsets:
#	150
#	15145
#	38195
#	52537
#	68230
#	82517
#	93175
#	110225
#	125790
#	145052
#
# Disc length: 2145 seconds
#
# Revision: 2
# Processed by: cddbd v1.5.1PL2 Copyright (c) Steve Scherf et al.
# Submitted via: CDex 1.51
#
DISCID=71085f0a
DTITLE=Amazing Rhythm Aces - Ride Again
DYEAR=1994
DGENRE=Country
TTITLE0=Third Rate Romance
TTITLE1=King of the Cowboys
TTITLE2=Della's Long Brown Hair
TTITLE3=Rodrigo, Rita and Elaine
TTITLE4=All That I Had (I Left With You)
TTITLE5=I Pity the Mother and the Father (When the Kids Move Away)
TTITLE6=Last Letter Home
TTITLE7=Out of the Snow
TTITLE8=The "Ella B"
TTITLE9=These Dreams of Losing You
EXTD=YEAR: 1994
EXTT0=
EXTT1=
EXTT2=
EXTT3=
EXTT4=
EXTT5=
EXTT6=
EXTT7=
EXTT8=
EXTT9=
PLAYORDER=
